<?xml version="1.0" encoding="UTF-8"?>
<svg xmlns="http://www.w3.org/2000/svg" xmlns:xlink="http://www.w3.org/1999/xlink" version="1.1" id="Layer_1" x="0px" y="0px" viewBox="0 0 265.45 91.42" style="enable-background:new 0 0 265.45 91.42;" xml:space="preserve"> <style type="text/css"> .st0{fill:#00775F;} </style> <g> <path class="st0" d="M45.85,14.49c-0.29-6.24-2.41-11.56-8.87-14.08c-1.5-0.73-3.1-0.22-4.65-0.37c-3.9-0.38-5.62,2.52-7.23,5.12 C14.44,22.31,2.64,38.97,0,59.76c0,1.32,0,2.63,0,3.95c6.93,8.91,12.7,6.13,14.24-2.17c0.92-4.93,3.87-6.84,8.85-5.73 c1.11,0.25,2.33,0.29,3.46,0.13c5.54-0.75,9.56,0.16,10.24,6.92c0.33,3.27,3.14,5.05,6.58,4.55c3.69-0.54,3.1-3.65,3.25-6.2 C47.56,45.62,46.58,30.05,45.85,14.49z M34.18,41.18c0.13,3.52-1.81,4.92-5.07,5.35c-9.23,1.19-10.71-0.63-7.27-9.06 c2.23-5.47,4.82-10.76,8.28-15.58c0.52-0.73,0.94-1.91,2.23-1.4c0.9,0.36,0.88,1.31,0.97,2.1c0.44,4.06,0.85,8.13,1.26,12.19 c-0.14,0.01-0.28,0.02-0.41,0.03C34.16,36.92,34.1,39.05,34.18,41.18z"/> <path class="st0" d="M123.98,33.82c-0.45,6.55-0.98,13.1-1.33,19.65c-0.17,3.25-1.46,5.58-4.88,5.6c-3.55,0.02-6.76-1.35-7.14-5.39 c-0.4-4.24-0.18-8.54-0.31-12.81c-0.04-1.56,0.68-3.7-1.24-4.36c-1.69-0.57-2.29,1.52-3.21,2.58c-3.24,3.73-6.42,7.52-9.63,11.29 c-3.46,4.06-7.82,6.27-13.16,5.16c-5.07-1.05-7.48-4.87-8.85-9.65c-0.57-2-0.16-5.55-2.91-5.46c-2.22,0.07-1.71,3.54-2.38,5.46 c-1.4,4.02-2.3,8.21-3.6,12.27c-1.1,3.43-3.26,5.95-7.28,5.14c-4.43-0.9-6.02-4.25-5-8.22c3.49-13.66,5.99-27.59,11.22-40.78 c1.81-4.56,4.94-6.8,9.94-6.37c5,0.43,7.04,3.34,7.7,8.05c1.05,7.47,2.51,14.89,3.79,22.33c0.22,1.3,0.37,2.87,1.67,3.35 c1.66,0.6,2.73-0.82,3.64-1.97c6.14-7.75,12.29-15.49,18.33-23.32c2.15-2.79,4.56-4.76,8.3-4.38c4.24,0.44,6.69,2.62,6.72,7.02 c0.03,4.92,0.01,9.85,0.01,14.77C124.24,33.81,124.11,33.82,123.98,33.82z"/> <path class="st0" d="M173.14,66.82c-15-0.11-23.98-10.74-21.16-25.37c1.78-9.21,3.86-18.48,11.42-25.04 c8.1-7.03,17.42-9.85,28.05-6.67c1.55,0.46,3.04,1.31,4.39,2.23c1.81,1.22,3.67,2.86,2.95,5.2c-0.77,2.49-3.22,2.48-5.44,2.15 c-10.95-1.62-17.3,4.79-22.57,12.85c-3.2,4.9-4.59,10.54-5.27,16.26c-0.8,6.8,3.09,9.99,9.92,8.52c2.25-0.48,4.53-0.97,6.81-1.1 c2.34-0.13,4.14,1.03,4.94,3.33c0.89,2.57-0.72,3.99-2.59,5.24C182.05,66.14,178.55,66.86,173.14,66.82z"/> <path class="st0" d="M143.11,76.86c3.22-0.54,6.2,1.14,9.31,1.71c13.5,2.48,27.03,2.24,40.6,0.87c3.04-0.31,6.31-0.78,7.03,3.35 c0.69,3.99-2.41,4.73-5.34,5.76c-18.94,6.68-35.4,0.96-50.89-9.8C143.28,78.38,142.72,77.99,143.11,76.86z"/> <path class="st0" d="M145.43,44.42c-0.49,5.39-0.7,10.13-1.9,14.76c-0.64,2.48-1.15,4.96-4.4,5.01c-3.11,0.05-5.42-1.44-6.64-4.24 c-1.43-3.26-1.37-6.73-0.71-10.14c0.69-3.53,1.78-6.98,2.42-10.51c0.49-2.69,1.29-4.98,4.52-4.63c3.33,0.35,6.03,1.92,6.67,5.53 C145.67,41.77,145.43,43.45,145.43,44.42z"/> <path class="st0" d="M216.42,44.49c-0.36,5.55-0.4,11.16-1.74,16.58c-0.64,2.59-0.95,5.81-4.97,5.59c-3.6-0.2-5.75-2.15-6.7-5.51 c-0.82-2.89-0.91-5.79-0.21-8.74c0.79-3.34,1.51-6.7,2.2-10.07c0.58-2.83,1.07-5.66,5.06-5.26 C213.92,37.48,216.58,40.53,216.42,44.49z"/> <path class="st0" d="M218.56,19.67c0,1.13,0.06,1.63-0.01,2.11c-0.34,2.41,0.94,5.79-2.81,6.4c-3.58,0.59-6.07-1.7-7.33-4.72 c-1.73-4.18-1.52-8.72-0.97-13.1c0.37-2.93,2.67-3.5,5.26-2.4C218.3,10.36,218.83,15.16,218.56,19.67z"/> <path class="st0" d="M151.43,17.14c-0.61,2.32-1.34,5.86-2.49,9.26c-0.97,2.87-3.15,3.14-5.52,1.48c-3.14-2.2-4.37-5.32-3.8-9.03 c0.35-2.26,1-4.48,1.61-6.7c0.54-1.96,0.36-4.56,3.28-4.83c2.89-0.26,4.48,1.68,5.83,3.86C151.24,12.64,151.49,14.24,151.43,17.14z "/> <path class="st0" d="M265.34,54.81c0.53-11.52-0.82-22.95-1.83-34.37c-0.49-5.58-0.82-11.61-6.27-15.45 c-3.92-2.76-6.96-2.38-9.61,1.52c-0.92,1.36-1.87,2.74-2.52,4.23c-6.59,15.2-13.13,30.42-19.65,45.65 c-0.77,1.81-1.45,3.69-1.28,5.72c0.36,4.2,3.01,6.51,6.86,7.38c3.91,0.88,4.48-2.43,5.54-4.95c1.27-3.02,2.46-6.08,3.78-9.08 c0.68-1.54,1.66-2.64,3.69-2.74c8.87-0.47,11.54,1.43,13.74,10.12c0.08,0.32,0.06,0.67,0.19,0.97c0.92,2.18,2.8,2.67,4.88,2.46 c2.1-0.21,2.54-1.71,2.49-3.56C265.29,60.07,265.34,57.44,265.34,54.81z M253.02,45.13c-2.6,0.81-5.48,0.48-7.66-0.91 c-2.01-1.28-0.06-3.27,0.52-4.8c1.88-5,3.94-9.93,5.92-14.89c0.43,0.03,0.85,0.05,1.28,0.08c1.24,5.25,1.67,10.62,2.08,15.99 C255.3,42.46,255.08,44.49,253.02,45.13z"/> </g> </svg>